# xmcd
#
# Track frame offsets: 
#        150
#        42239
#        101204
#        139935
#        161008
#        182188
#        203272
#        207151
#        240335
#        286549
#
# Disc length: 4060 seconds
#
# Revision: 0
# Processed by: cddbd v1.5.2PL0 Copyright (c) Steve Scherf et al.
# Submitted via: ExactAudioCopy v0.95b3
#
DISCID=840fda0a
DTITLE=Genesis  - As Good As Gold (live) [CD 2)  FLAC
DYEAR=1900
DGENRE=
TTITLE0=The Lady Lies
TTITLE1=Ripples
TTITLE2=In The Cage and Slippermen
TTITLE3=Afterglow
TTITLE4=Follow You Follow Me
TTITLE5=Dance On Volcano
TTITLE6=Drum Duet
TTITLE7=Los Endos
TTITLE8=I Know What I Like
TTITLE9=The Knife
EXTD=
EXTT0=
EXTT1=
EXTT2=
EXTT3=
EXTT4=
EXTT5=
EXTT6=
EXTT7=
EXTT8=
EXTT9=
PLAYORDER=
